<svg xmlns="http://www.w3.org/2000/svg" viewBox="0 0 7410 3900" aria-hidden="true">
  <rect width="7410" height="3900" fill="#b22234" />
  <g fill="#fff">
    <rect y="300" width="7410" height="300" />
    <rect y="900" width="7410" height="300" />
    <rect y="1500" width="7410" height="300" />
    <rect y="2100" width="7410" height="300" />
    <rect y="2700" width="7410" height="300" />
    <rect y="3300" width="7410" height="300" />
  </g>
  <rect width="2964" height="2100" fill="#3c3b6e" />
  <g fill="#fff">
    <g id="s">
      <polygon points="247,90 275,176 366,176 292,229 320,315 247,262 174,315 202,229 128,176 219,176" />
    </g>
    <g>
      <use href="#s" x="494" />
      <use href="#s" x="988" />
      <use href="#s" x="1482" />
      <use href="#s" x="1976" />
      <use href="#s" x="2470" />
    </g>
    <g transform="translate(247,175)">
      <use href="#s" x="0" />
      <use href="#s" x="494" />
      <use href="#s" x="988" />
      <use href="#s" x="1482" />
      <use href="#s" x="1976" />
    </g>
    <g transform="translate(0,350)">
      <use href="#s" x="0" />
      <use href="#s" x="494" />
      <use href="#s" x="988" />
      <use href="#s" x="1482" />
      <use href="#s" x="1976" />
      <use href="#s" x="2470" />
    </g>
    <g transform="translate(247,525)">
      <use href="#s" x="0" />
      <use href="#s" x="494" />
      <use href="#s" x="988" />
      <use href="#s" x="1482" />
      <use href="#s" x="1976" />
    </g>
    <g transform="translate(0,700)">
      <use href="#s" x="0" />
      <use href="#s" x="494" />
      <use href="#s" x="988" />
      <use href="#s" x="1482" />
      <use href="#s" x="1976" />
      <use href="#s" x="2470" />
    </g>
    <g transform="translate(247,875)">
      <use href="#s" x="0" />
      <use href="#s" x="494" />
      <use href="#s" x="988" />
      <use href="#s" x="1482" />
      <use href="#s" x="1976" />
    </g>
    <g transform="translate(0,1050)">
      <use href="#s" x="0" />
      <use href="#s" x="494" />
      <use href="#s" x="988" />
      <use href="#s" x="1482" />
      <use href="#s" x="1976" />
      <use href="#s" x="2470" />
    </g>
    <g transform="translate(247,1225)">
      <use href="#s" x="0" />
      <use href="#s" x="494" />
      <use href="#s" x="988" />
      <use href="#s" x="1482" />
      <use href="#s" x="1976" />
    </g>
    <g transform="translate(0,1400)">
      <use href="#s" x="0" />
      <use href="#s" x="494" />
      <use href="#s" x="988" />
      <use href="#s" x="1482" />
      <use href="#s" x="1976" />
      <use href="#s" x="2470" />
    </g>
  </g>
</svg>
